<svg width="76" height="58" viewBox="0 0 76 58" fill="none" xmlns="http://www.w3.org/2000/svg">
<path d="M65.0005 17.112L65.9607 15.9596L65.8523 15.8693L65.7289 15.8007L65.0005 17.112ZM33.0005 46.6118L32.0914 47.805L32.139 47.8412L32.1893 47.8736L33.0005 46.6118ZM47 20.6118L45.507 20.7563L45.5115 20.8027L45.5188 20.8488L47 20.6118ZM4.58047 17.5967C4.84817 18.3807 5.70073 18.7992 6.48471 18.5315L19.2604 14.1691C20.0444 13.9014 20.463 13.0488 20.1953 12.2648C19.9276 11.4808 19.075 11.0623 18.291 11.33L6.93481 15.2077L3.0571 3.85151C2.7894 3.06753 1.93684 2.649 1.15286 2.9167C0.368878 3.1844 -0.0496516 4.03696 0.218049 4.82094L4.58047 17.5967ZM63.7722 57.8982C67.8982 55.4226 73.1222 48.9436 75.0203 41.1546C76.9563 33.2104 75.4383 23.8576 65.9607 15.9596L64.0402 18.2643C72.5626 25.3663 73.7946 33.5135 72.1056 40.4443C70.3788 47.5303 65.6027 53.3013 62.2287 55.3257L63.7722 57.8982ZM65.7289 15.8007C60.681 12.9963 48.0431 10.948 35.9398 23.0513L38.0611 25.1726C49.1579 14.0759 60.3199 16.2276 64.272 18.4232L65.7289 15.8007ZM35.9398 23.0513C29.9604 29.0307 27.8238 34.3502 27.838 38.7168C27.8521 43.0703 30.0081 46.2177 32.0914 47.805L33.9095 45.4187C32.4928 44.3393 30.8488 42.0368 30.8379 38.707C30.8272 35.3903 32.4405 30.7932 38.0611 25.1726L35.9398 23.0513ZM32.1893 47.8736C33.3361 48.6108 34.5757 48.9113 35.8344 48.7927C37.0689 48.6764 38.2294 48.1669 39.2787 47.4369C41.3542 45.993 43.2112 43.5384 44.7044 40.6818C47.693 34.9644 49.5432 27.0128 48.4812 20.3748L45.5188 20.8488C46.4568 26.7111 44.807 34.0094 42.0457 39.292C40.664 41.9354 39.0835 43.9182 37.5655 44.9743C36.8179 45.4943 36.1426 45.7504 35.553 45.8059C34.9875 45.8592 34.4147 45.7378 33.8116 45.3501L32.1893 47.8736ZM48.493 20.4673C47.676 12.0245 40.2989 3.81486 31.4092 1.29391C26.904 0.0163277 21.9523 0.17825 17.2217 2.53503C12.4999 4.88748 8.13603 9.35691 4.6535 16.4509L7.3465 17.773C10.614 11.117 14.5626 7.21151 18.5595 5.22023C22.5477 3.23328 26.721 3.08271 30.5908 4.18011C38.4511 6.40913 44.824 13.6994 45.507 20.7563L48.493 20.4673Z" fill="#0F0BC7"/>
</svg>
